<mxfile host="Electron" agent="Mozilla/5.0 (Windows NT 10.0; Win64; x64) AppleWebKit/537.36 (KHTML, like Gecko) draw.io/24.7.17 Chrome/128.0.6613.36 Electron/32.0.1 Safari/537.36" version="24.7.17">
  <diagram name="Page-1" id="XGRwIJhhj2woovYPb2cp">
    <mxGraphModel dx="1420" dy="822" grid="1" gridSize="10" guides="1" tooltips="1" connect="1" arrows="1" fold="1" page="1" pageScale="1" pageWidth="827" pageHeight="1169" math="0" shadow="0">
      <root>
        <mxCell id="0" />
        <mxCell id="1" parent="0" />
        <mxCell id="HcUj0cX0jSpLiBges5oR-1" value="00_testes" style="rounded=0;whiteSpace=wrap;html=1;fillColor=#008a00;fontColor=#ffffff;strokeColor=#005700;" vertex="1" parent="1">
          <mxGeometry x="680" y="240" width="120" height="40" as="geometry" />
        </mxCell>
        <mxCell id="HcUj0cX0jSpLiBges5oR-10" style="edgeStyle=orthogonalEdgeStyle;rounded=0;orthogonalLoop=1;jettySize=auto;html=1;entryX=0;entryY=0.5;entryDx=0;entryDy=0;" edge="1" parent="1" source="HcUj0cX0jSpLiBges5oR-2" target="HcUj0cX0jSpLiBges5oR-7">
          <mxGeometry relative="1" as="geometry" />
        </mxCell>
        <mxCell id="HcUj0cX0jSpLiBges5oR-2" value="01_raw" style="rounded=0;whiteSpace=wrap;html=1;fillColor=#6d8764;fontColor=#ffffff;strokeColor=#3A5431;" vertex="1" parent="1">
          <mxGeometry x="280" y="120" width="120" height="40" as="geometry" />
        </mxCell>
        <mxCell id="HcUj0cX0jSpLiBges5oR-11" style="edgeStyle=orthogonalEdgeStyle;rounded=0;orthogonalLoop=1;jettySize=auto;html=1;entryX=0;entryY=0.5;entryDx=0;entryDy=0;" edge="1" parent="1" source="HcUj0cX0jSpLiBges5oR-3" target="HcUj0cX0jSpLiBges5oR-7">
          <mxGeometry relative="1" as="geometry" />
        </mxCell>
        <mxCell id="HcUj0cX0jSpLiBges5oR-3" value="02_bronze" style="rounded=0;whiteSpace=wrap;html=1;fillColor=#a0522d;fontColor=#ffffff;strokeColor=#6D1F00;" vertex="1" parent="1">
          <mxGeometry x="280" y="240" width="120" height="40" as="geometry" />
        </mxCell>
        <mxCell id="HcUj0cX0jSpLiBges5oR-12" style="edgeStyle=orthogonalEdgeStyle;rounded=0;orthogonalLoop=1;jettySize=auto;html=1;entryX=0;entryY=0.5;entryDx=0;entryDy=0;" edge="1" parent="1" source="HcUj0cX0jSpLiBges5oR-4" target="HcUj0cX0jSpLiBges5oR-7">
          <mxGeometry relative="1" as="geometry" />
        </mxCell>
        <mxCell id="HcUj0cX0jSpLiBges5oR-4" value="03_silver" style="rounded=0;whiteSpace=wrap;html=1;fillColor=#647687;fontColor=#ffffff;strokeColor=#314354;" vertex="1" parent="1">
          <mxGeometry x="280" y="360" width="120" height="40" as="geometry" />
        </mxCell>
        <mxCell id="HcUj0cX0jSpLiBges5oR-13" style="edgeStyle=orthogonalEdgeStyle;rounded=0;orthogonalLoop=1;jettySize=auto;html=1;entryX=0;entryY=0.5;entryDx=0;entryDy=0;" edge="1" parent="1" source="HcUj0cX0jSpLiBges5oR-5" target="HcUj0cX0jSpLiBges5oR-7">
          <mxGeometry relative="1" as="geometry" />
        </mxCell>
        <mxCell id="HcUj0cX0jSpLiBges5oR-5" value="04_GE_validation" style="rounded=0;whiteSpace=wrap;html=1;fillColor=#6a00ff;fontColor=#ffffff;strokeColor=#3700CC;" vertex="1" parent="1">
          <mxGeometry x="280" y="480" width="120" height="40" as="geometry" />
        </mxCell>
        <mxCell id="HcUj0cX0jSpLiBges5oR-14" style="edgeStyle=orthogonalEdgeStyle;rounded=0;orthogonalLoop=1;jettySize=auto;html=1;entryX=0;entryY=0.5;entryDx=0;entryDy=0;" edge="1" parent="1" source="HcUj0cX0jSpLiBges5oR-6" target="HcUj0cX0jSpLiBges5oR-7">
          <mxGeometry relative="1" as="geometry" />
        </mxCell>
        <mxCell id="HcUj0cX0jSpLiBges5oR-6" value="05_gold" style="rounded=0;whiteSpace=wrap;html=1;fillColor=#e3c800;fontColor=#000000;strokeColor=#B09500;" vertex="1" parent="1">
          <mxGeometry x="280" y="600" width="120" height="40" as="geometry" />
        </mxCell>
        <mxCell id="HcUj0cX0jSpLiBges5oR-9" style="edgeStyle=orthogonalEdgeStyle;rounded=0;orthogonalLoop=1;jettySize=auto;html=1;entryX=0;entryY=0.5;entryDx=0;entryDy=0;" edge="1" parent="1" source="HcUj0cX0jSpLiBges5oR-7" target="HcUj0cX0jSpLiBges5oR-8">
          <mxGeometry relative="1" as="geometry" />
        </mxCell>
        <mxCell id="HcUj0cX0jSpLiBges5oR-7" value="06_entrypoints" style="rounded=0;whiteSpace=wrap;html=1;fillColor=#e51400;fontColor=#ffffff;strokeColor=#B20000;" vertex="1" parent="1">
          <mxGeometry x="480" y="360" width="120" height="40" as="geometry" />
        </mxCell>
        <mxCell id="HcUj0cX0jSpLiBges5oR-8" value="07_main" style="rounded=0;whiteSpace=wrap;html=1;fillColor=#0050ef;fontColor=#ffffff;strokeColor=#001DBC;" vertex="1" parent="1">
          <mxGeometry x="680" y="360" width="120" height="40" as="geometry" />
        </mxCell>
        <mxCell id="HcUj0cX0jSpLiBges5oR-16" value="Bruto" style="shape=cylinder3;whiteSpace=wrap;html=1;boundedLbl=1;backgroundOutline=1;size=15;fillColor=#6d8764;fontColor=#ffffff;strokeColor=#3A5431;" vertex="1" parent="1">
          <mxGeometry x="160" y="100" width="60" height="80" as="geometry" />
        </mxCell>
        <mxCell id="HcUj0cX0jSpLiBges5oR-17" style="edgeStyle=orthogonalEdgeStyle;rounded=0;orthogonalLoop=1;jettySize=auto;html=1;entryX=1;entryY=0.5;entryDx=0;entryDy=0;entryPerimeter=0;" edge="1" parent="1" source="HcUj0cX0jSpLiBges5oR-2" target="HcUj0cX0jSpLiBges5oR-16">
          <mxGeometry relative="1" as="geometry" />
        </mxCell>
        <mxCell id="HcUj0cX0jSpLiBges5oR-19" value="Bronze" style="shape=cylinder3;whiteSpace=wrap;html=1;boundedLbl=1;backgroundOutline=1;size=15;fillColor=#a0522d;fontColor=#ffffff;strokeColor=#6D1F00;" vertex="1" parent="1">
          <mxGeometry x="160" y="220" width="60" height="80" as="geometry" />
        </mxCell>
        <mxCell id="HcUj0cX0jSpLiBges5oR-20" value="Silver&lt;div&gt;Transacional&lt;/div&gt;" style="shape=cylinder3;whiteSpace=wrap;html=1;boundedLbl=1;backgroundOutline=1;size=15;fillColor=#647687;fontColor=#ffffff;strokeColor=#314354;" vertex="1" parent="1">
          <mxGeometry x="60" y="280" width="60" height="80" as="geometry" />
        </mxCell>
        <mxCell id="HcUj0cX0jSpLiBges5oR-21" value="Gold" style="shape=cylinder3;whiteSpace=wrap;html=1;boundedLbl=1;backgroundOutline=1;size=15;fillColor=#e3c800;fontColor=#000000;strokeColor=#B09500;" vertex="1" parent="1">
          <mxGeometry x="170" y="580" width="60" height="80" as="geometry" />
        </mxCell>
        <mxCell id="HcUj0cX0jSpLiBges5oR-22" style="edgeStyle=orthogonalEdgeStyle;rounded=0;orthogonalLoop=1;jettySize=auto;html=1;entryX=1;entryY=0.5;entryDx=0;entryDy=0;entryPerimeter=0;" edge="1" parent="1" source="HcUj0cX0jSpLiBges5oR-3" target="HcUj0cX0jSpLiBges5oR-19">
          <mxGeometry relative="1" as="geometry" />
        </mxCell>
        <mxCell id="HcUj0cX0jSpLiBges5oR-23" style="edgeStyle=orthogonalEdgeStyle;rounded=0;orthogonalLoop=1;jettySize=auto;html=1;entryX=1;entryY=0.5;entryDx=0;entryDy=0;entryPerimeter=0;" edge="1" parent="1" source="HcUj0cX0jSpLiBges5oR-4" target="HcUj0cX0jSpLiBges5oR-20">
          <mxGeometry relative="1" as="geometry" />
        </mxCell>
        <mxCell id="HcUj0cX0jSpLiBges5oR-24" style="edgeStyle=orthogonalEdgeStyle;rounded=0;orthogonalLoop=1;jettySize=auto;html=1;entryX=1;entryY=0.5;entryDx=0;entryDy=0;entryPerimeter=0;" edge="1" parent="1" source="HcUj0cX0jSpLiBges5oR-6" target="HcUj0cX0jSpLiBges5oR-21">
          <mxGeometry relative="1" as="geometry" />
        </mxCell>
        <mxCell id="HcUj0cX0jSpLiBges5oR-25" value="Silver&lt;div&gt;AnalÃ­tica&lt;/div&gt;" style="shape=cylinder3;whiteSpace=wrap;html=1;boundedLbl=1;backgroundOutline=1;size=15;fillColor=#647687;fontColor=#ffffff;strokeColor=#314354;" vertex="1" parent="1">
          <mxGeometry x="60" y="400" width="60" height="80" as="geometry" />
        </mxCell>
        <mxCell id="HcUj0cX0jSpLiBges5oR-27" style="edgeStyle=orthogonalEdgeStyle;rounded=0;orthogonalLoop=1;jettySize=auto;html=1;entryX=1;entryY=0.5;entryDx=0;entryDy=0;entryPerimeter=0;" edge="1" parent="1" source="HcUj0cX0jSpLiBges5oR-4" target="HcUj0cX0jSpLiBges5oR-25">
          <mxGeometry relative="1" as="geometry" />
        </mxCell>
        <mxCell id="HcUj0cX0jSpLiBges5oR-28" value="" style="rounded=0;whiteSpace=wrap;html=1;fillColor=none;" vertex="1" parent="1">
          <mxGeometry x="40" y="80" width="770" height="600" as="geometry" />
        </mxCell>
      </root>
    </mxGraphModel>
  </diagram>
</mxfile>
